<?xml version="1.0" encoding="utf-8"?>
<!-- Generator: Adobe Illustrator 25.0.0, SVG Export Plug-In . SVG Version: 6.00 Build 0)  -->
<svg version="1.1" id="Calque_1" xmlns="http://www.w3.org/2000/svg" xmlns:xlink="http://www.w3.org/1999/xlink" x="0px" y="0px"
	 viewBox="0 0 147.1 125" style="enable-background:new 0 0 147.1 125;" xml:space="preserve">
<style type="text/css">
	.st0{fill:#262626;}
	.st1{fill:#FFE800;}
	.st2{fill:#FF9940;}
	.st3{fill:#E1000F;}
	.st4{fill:#5770BE;}
	.st5{fill:#00AC8C;}
</style>
<g>
	<path class="st0" d="M48.6,84.9c-6.9,0-9.9,3.9-10,4v-4h-5.6v28.8h5.6V96.1c0.1-4.2,5.4-6.7,9-6.7c2.7,0,6.1,1.8,6.1,5.1l0,0v19.1
		h5.6v-19C59.3,88.1,54.5,84.9,48.6,84.9z"/>
	<path class="st0" d="M138.2,96.6h-5c-2.8,0-4.3-1.1-4.2-3.7s3.1-3.6,6-3.6c3,0,5.9,0.5,8.7,1.6l1.9-4.5c-3.2-1.3-6.6-2-10.1-2
		c-4.9,0-11.6,1.9-11.9,8.5c-0.3,6.4,4.2,8.6,8.9,8.7h5c2.8,0,4.3,1.1,4.2,3.7c-0.1,2.7-3.1,3.6-6,3.6c-3.3,0.1-6.6-0.6-9.7-2
		l-1.9,4.5c3.4,1.7,7.2,2.5,11,2.4c4.9,0,11.6-1.9,11.9-8.5C147.4,98.8,142.9,96.7,138.2,96.6z"/>
	<path class="st0" d="M105.8,84.3c-8.1,0-14.1,4.7-14.1,15.1s7.6,14.5,15.4,14.5c7.2,0,11-2.4,11-2.4l-2.1-4.3c0,0-2.8,1.8-9.1,1.8
		c-4.3,0-8.8-1.3-9.5-7.4h22V99C119.5,89.6,115.1,84.3,105.8,84.3z M97.6,97c0.6-6.1,3.8-7.9,8.5-7.9c5.1,0,7.4,2.4,7.7,7.9H97.6z"
		/>
	<path class="st0" d="M78.9,96.6h-5c-2.8,0-4.3-1.1-4.2-3.7s3.1-3.6,6-3.6c3,0,5.9,0.5,8.7,1.6l1.9-4.5c-3.2-1.3-6.6-2-10.1-2
		c-4.9,0-11.6,1.9-11.9,8.5c-0.3,6.4,4.2,8.6,8.9,8.7h5c2.8,0,4.3,1.1,4.2,3.7c-0.1,2.7-3.1,3.6-6,3.6c-3.3,0.1-6.6-0.6-9.7-2
		l-1.9,4.5c3.4,1.7,7.2,2.5,11,2.4c4.9,0,11.6-1.9,11.9-8.5C88.1,98.8,83.6,96.7,78.9,96.6z"/>
	<path class="st0" d="M13.3,84.5c-3.7,0-7.4,0.6-10.9,1.8l2.2,4.5c3-1,6.2-1.4,9.4-1.4c3.3,0,7.2,0.9,7.2,5.2v1.7h-11
		C4.5,96.4,0,98.4,0,105c0,6,4.9,8.7,10.9,8.7c7.1,0,10.2-4,10.2-4v4h5.6V93.1C26.4,86.5,18.8,84.5,13.3,84.5z M21.1,102.3
		c0,4.3-5.5,6.8-9.2,6.8c-2.7,0-6.2-0.9-6.2-4.2s1.9-4.2,4.7-4.2h10.7V102.3z"/>
	<path class="st1" d="M88.6,15.5c-9.2-5.8-20.8-5.8-30.1-0.2c0,0,6.4,11,15.1,11S88.6,15.5,88.6,15.5z"/>
	<path class="st2" d="M54.8,18c-4,3.4-7,7.9-8.7,13c-1.7,5-1.9,10.5-0.6,15.6c0,0,12.3-2.7,15-10.9S54.8,18,54.8,18z"/>
	<path class="st3" d="M46.9,50.6c2,4.9,5.3,9.2,9.6,12.3c4.3,3.2,9.4,5.1,14.7,5.5c0,0,1.2-12.6-5.8-17.7S46.9,50.6,46.9,50.6z"/>
	<path class="st4" d="M75.8,68.3c10.8-1,20.1-7.9,24.2-17.9c0,0-11.7-5-18.7,0.2S75.8,68.3,75.8,68.3z"/>
	<path class="st5" d="M101.2,46.7c2.6-10.5-0.9-21.6-9.1-28.6c0,0-8.5,9.4-5.8,17.6S101.2,46.7,101.2,46.7z"/>
</g>
</svg>
