<?xml version="1.0" encoding="utf-8"?>
<!-- Generator: Adobe Illustrator 27.1.1, SVG Export Plug-In . SVG Version: 6.00 Build 0)  -->
<svg version="1.1" id="Calque_1" xmlns="http://www.w3.org/2000/svg" xmlns:xlink="http://www.w3.org/1999/xlink" x="0px" y="0px"
	 viewBox="0 0 82 34.8" style="enable-background:new 0 0 82 34.8;" xml:space="preserve">
<g>
	<g>
		<g>
			<path d="M76.6,2.9c-2.6-1.3-4.8-1.7-7-1.7c-2.2,0-4.4,0.4-7,1.7c-2.7,1.3-4.4,4.4-4.4,6.7v6.2c0,2.3,1.7,5.4,4.4,6.7
				c2.6,1.3,4.8,1.7,7,1.7c2.2,0,4.4-0.4,7-1.7c2.7-1.3,4.4-4.4,4.4-6.7V9.6C81,7.3,79.3,4.3,76.6,2.9z M75,17.9
				c-2.1,1.9-5.4,1.8-5.4,1.8s-3.3,0.1-5.4-1.8c-1.5-1.3-1.4-3.5-1.4-3.5v-3.2c0,0-0.1-2.2,1.4-3.5c2.1-1.9,5.4-1.8,5.4-1.8
				s3.3-0.1,5.4,1.8c1.5,1.3,1.4,3.5,1.4,3.5v3.2C76.4,14.4,76.5,16.6,75,17.9z M12.5,14.9c1.3,0,2.3-0.8,2.3-2V3.3
				c0-1.3-1-2.3-2.3-2.3c-1.3,0-2.3,1-2.3,2.3v9.6C10.2,14.2,11.2,14.9,12.5,14.9z M71.4,10.9c-0.7-0.7-1.8-0.6-1.8-0.6
				s-1.1,0-1.8,0.6c-0.5,0.5-0.5,1.3-0.5,1.3v1.1c0,0,0,0.8,0.5,1.3c0.7,0.7,1.8,0.6,1.8,0.6s1.1,0,1.8-0.6c0.5-0.5,0.5-1.3,0.5-1.3
				v-1.1C71.9,12.2,71.9,11.4,71.4,10.9z M53.2,17.6c0-4-3.3-5.5-3.3-5.5c1.5-1.1,2.4-3.3,2.3-4.8c-0.3-6-6-6.4-6-6.4H31.7
				c-1.3,0-2.3,1-2.3,2.3s1,2.3,2.3,2.3h13.6c1.3,0,2.3,1,2.3,2.3c0,1.3-1,2.3-2.3,2.3h-5.1c-1.3,0-2.3,1-2.3,2.3
				c0,1.3,1,2.3,2.3,2.3h6.2c1.3,0,2.3,1,2.3,2.3c0,1.3-1,2.3-2.3,2.3h-6.2c-1.3,0-2.3,1-2.3,2.3c0,1.3,1,2.3,2.3,2.3h6.5
				C50.2,23.9,53.2,21.4,53.2,17.6z M21.7,1c-1.3,0-2.3,1-2.3,2.3V14c0,0,0.1,2.2-1.4,3.5c-2.1,1.9-5.4,1.8-5.4,1.8
				s-3.3,0.1-5.4-1.8C5.5,16.2,5.6,14,5.6,14V3.3C5.6,2,4.6,1,3.3,1C2.1,1,1.1,2,1.1,3.3v12.3c0,2.3,1.7,5.4,4.4,6.7
				c2.6,1.3,4.8,1.7,7,1.7c2.2,0,4.5-0.4,7.1-1.7c2.7-1.3,4.4-4.4,4.4-6.7V3.3C24,2,23,1,21.7,1z M34,21.6v-9.1c0-1.3-1-2.3-2.3-2.3
				c-1.3,0-2.3,1-2.3,2.3v9.1c0,1.3,1,2.3,2.3,2.3C33,23.9,34,22.9,34,21.6z"/>
		</g>
	</g>
	<g>
		<path d="M3.7,31.6C3.7,32.7,3,33,2.4,33S1,32.7,1,31.6v-2.9h0.4v2.6c0,0.7,0,1.3,0.9,1.3c0.9,0,0.9-0.6,0.9-1.3v-2.6h0.4V31.6z"/>
		<path d="M4.8,32.9H4.4v-3h0.4v0.3C5,30,5.3,29.8,5.6,29.8c0.4,0,0.8,0.2,0.8,1v2.1H6v-2c0-0.3,0.1-0.8-0.4-0.8
			c-0.3,0-0.6,0.3-0.8,0.5V32.9z"/>
		<path d="M7.5,29.1H7.1v-0.5h0.4V29.1z M7.5,32.9H7.1v-3h0.4V32.9z"/>
		<path d="M9.4,32.9H8.7l-0.9-3h0.4l0.8,2.6l0.8-2.6h0.4L9.4,32.9z"/>
		<path d="M11,31.5c0,0.9,0.4,1.2,0.8,1.2c0.3,0,0.6-0.3,0.7-0.5l0.3,0.2c-0.2,0.4-0.6,0.7-1.1,0.7c-0.7,0-1.2-0.5-1.2-1.6
			c0-1.1,0.5-1.6,1.2-1.6c0.9,0,1.1,0.9,1.1,1.7H11z M12.3,31.1c0-0.4-0.2-0.9-0.6-0.9c-0.5,0-0.7,0.5-0.7,0.9H12.3z"/>
		<path d="M13.8,30.5L13.8,30.5c0.2-0.4,0.4-0.7,0.8-0.7h0.2v0.4c-0.6-0.1-0.8,0.5-1,1v1.7h-0.4v-3h0.4V30.5z"/>
		<path d="M17,30.6c-0.2-0.3-0.4-0.4-0.7-0.4c-0.3,0-0.5,0.1-0.5,0.4c0,0.7,1.6,0.4,1.6,1.4c0,0.6-0.4,1-1,1c-0.5,0-0.9-0.2-1.1-0.6
			l0.3-0.2c0.2,0.3,0.4,0.5,0.8,0.5c0.3,0,0.6-0.2,0.6-0.5c0-0.8-1.6-0.4-1.6-1.5c0-0.5,0.4-0.8,0.9-0.8c0.4,0,0.8,0.2,1,0.5
			L17,30.6z"/>
		<path d="M18.4,29.1h-0.4v-0.5h0.4V29.1z M18.4,32.9h-0.4v-3h0.4V32.9z"/>
		<path d="M19.6,29.9h0.7v0.4h-0.7v1.9c0,0.3,0,0.5,0.3,0.5c0.1,0,0.2,0,0.3,0v0.3C20.2,33,20,33,19.9,33c-0.7,0-0.7-0.5-0.7-1v-1.7
			h-0.5v-0.4h0.5v-1h0.4V29.9z"/>
		<path d="M21.1,31.5c0,0.9,0.4,1.2,0.8,1.2c0.3,0,0.6-0.3,0.7-0.5l0.3,0.2c-0.2,0.4-0.6,0.7-1.1,0.7c-0.7,0-1.2-0.5-1.2-1.6
			c0-1.1,0.5-1.6,1.2-1.6c0.9,0,1.1,0.9,1.1,1.7H21.1z M22.4,31.1c0-0.4-0.2-0.9-0.6-0.9c-0.5,0-0.7,0.5-0.7,0.9H22.4z M21.9,28.6
			h0.5l-0.6,0.8h-0.3L21.9,28.6z"/>
		<path d="M26.9,28.6h0.4v4.3h-0.4v-0.3c-0.2,0.3-0.4,0.4-0.8,0.4c-0.4,0-1.1-0.4-1.1-1.5c0-1.2,0.6-1.7,1.1-1.7
			c0.3,0,0.6,0.2,0.8,0.4V28.6z M26.9,30.7c-0.1-0.3-0.4-0.5-0.7-0.5c-0.6,0-0.7,0.8-0.7,1.3c0,0.9,0.4,1.2,0.7,1.2
			c0.3,0,0.6-0.3,0.7-0.6V30.7z"/>
		<path d="M28.3,31.5c0,0.9,0.4,1.2,0.8,1.2c0.3,0,0.6-0.3,0.7-0.5l0.3,0.2C30,32.7,29.6,33,29.1,33c-0.7,0-1.2-0.5-1.2-1.6
			c0-1.1,0.5-1.6,1.2-1.6c0.9,0,1.1,0.9,1.1,1.7H28.3z M29.7,31.1c0-0.4-0.2-0.9-0.6-0.9c-0.5,0-0.7,0.5-0.7,0.9H29.7z"/>
		<path d="M32.4,32.9v-4.3h1.2c1.1,0,1.4,0.6,1.4,1.1c0,0.5-0.3,0.8-0.7,0.9c0.5,0.2,0.8,0.5,0.8,1.1c0,0.5-0.2,1.2-1.4,1.2H32.4z
			 M33.2,30.5c0.5,0,1.2,0,1.2-0.7c0-0.8-0.7-0.7-1.2-0.7h-0.4v1.5H33.2z M32.8,32.5h0.5c1,0,1.2-0.3,1.2-0.8c0-0.5-0.2-0.9-1.2-0.9
			h-0.6V32.5z"/>
		<path d="M36,30.5L36,30.5c0.2-0.4,0.4-0.7,0.8-0.7H37v0.4c-0.6-0.1-0.8,0.5-1,1v1.7h-0.4v-3H36V30.5z"/>
		<path d="M37.7,31.5c0,0.9,0.4,1.2,0.8,1.2c0.3,0,0.6-0.3,0.7-0.5l0.3,0.2C39.4,32.7,39,33,38.5,33c-0.7,0-1.2-0.5-1.2-1.6
			c0-1.1,0.5-1.6,1.2-1.6c0.9,0,1.1,0.9,1.1,1.7H37.7z M39.1,31.1c0-0.4-0.2-0.9-0.6-0.9c-0.5,0-0.7,0.5-0.7,0.9H39.1z"/>
		<path d="M40.8,29.9h0.7v0.4h-0.7v1.9c0,0.3,0,0.5,0.3,0.5c0.1,0,0.2,0,0.3,0v0.3C41.3,33,41.2,33,41,33c-0.7,0-0.7-0.5-0.7-1v-1.7
			h-0.5v-0.4h0.5v-1h0.4V29.9z"/>
		<path d="M43.5,32.9l0-0.4C43.2,32.8,43,33,42.6,33c-0.5,0-0.8-0.4-0.8-0.9c0-0.9,0.9-1.1,1.6-1.2l0.1,0v-0.2
			c0-0.3-0.2-0.5-0.6-0.5c-0.3,0-0.6,0.2-0.7,0.5l-0.3-0.2c0.3-0.4,0.6-0.6,1-0.6c0.4,0,1,0.3,1,0.9v1.5c0,0.2,0,0.5,0.1,0.7H43.5z
			 M43.3,31.3c-0.4,0.1-1.1,0.3-1.1,0.8c0,0.3,0.2,0.5,0.5,0.5c0.3,0,0.7-0.2,0.9-0.5v-0.9L43.3,31.3z"/>
		<path d="M47,30.2h-0.2c-0.1,0-0.2,0-0.3,0.1c0.1,0.2,0.2,0.4,0.2,0.6c0,0.6-0.4,1-1,1c-0.2,0-0.3,0-0.5-0.1
			C45.2,31.9,45,32,45,32.1c0,0.4,2-0.1,2,1c0,0.2-0.1,0.8-1.3,0.8c-1,0-1.3-0.4-1.3-0.8c0-0.3,0.3-0.5,0.5-0.6
			c-0.2-0.1-0.4-0.2-0.4-0.4c0-0.3,0.2-0.4,0.4-0.6c-0.2-0.3-0.3-0.4-0.3-0.8c0-0.6,0.5-1,1.1-1c0.2,0,0.5,0.1,0.7,0.2
			c0.2-0.1,0.4-0.3,0.7-0.2V30.2z M45.4,32.7c-0.2,0-0.6,0.2-0.6,0.5c0,0.4,0.6,0.4,0.9,0.4c0.3,0,0.8-0.1,0.8-0.5
			c0-0.3-0.5-0.4-0.7-0.4L45.4,32.7z M45.7,30.1c-0.4,0-0.7,0.3-0.7,0.7c0,0.4,0.2,0.7,0.6,0.7c0.4,0,0.7-0.3,0.7-0.7
			C46.4,30.5,46.1,30.1,45.7,30.1z"/>
		<path d="M48,32.9h-0.4v-3H48v0.3c0.3-0.2,0.5-0.4,0.8-0.4c0.4,0,0.8,0.2,0.8,1v2.1h-0.4v-2c0-0.3,0.1-0.8-0.4-0.8
			c-0.3,0-0.6,0.3-0.8,0.5V32.9z"/>
		<path d="M50.7,31.5c0,0.9,0.4,1.2,0.8,1.2c0.3,0,0.6-0.3,0.7-0.5l0.3,0.2c-0.2,0.4-0.6,0.7-1.1,0.7c-0.7,0-1.2-0.5-1.2-1.6
			c0-1.1,0.5-1.6,1.2-1.6c0.9,0,1.1,0.9,1.1,1.7H50.7z M52,31.1c0-0.4-0.2-0.9-0.6-0.9c-0.5,0-0.7,0.5-0.7,0.9H52z"/>
		<path d="M57.7,30.8c0,1.4-0.7,2.2-1.5,2.2c-0.9,0-1.5-0.8-1.5-2.2c0-1.4,0.7-2.2,1.5-2.2C57,28.6,57.7,29.4,57.7,30.8z M55,30.8
			c0,1.3,0.5,1.9,1.1,1.9c0.6,0,1.1-0.6,1.1-1.9c0-1.3-0.5-1.9-1.1-1.9C55.5,28.9,55,29.5,55,30.8z"/>
		<path d="M60,30.7c-0.1-0.3-0.3-0.6-0.6-0.6c-0.7,0-0.8,0.7-0.8,1.2c0,0.5,0.1,1.2,0.8,1.2c0.4,0,0.6-0.3,0.7-0.6l0.3,0.2
			c-0.2,0.5-0.6,0.8-1.1,0.8c-0.7,0-1.2-0.5-1.2-1.6c0-1.1,0.5-1.6,1.2-1.6c0.5,0,0.8,0.3,1,0.8L60,30.7z"/>
		<path d="M62.8,30.7c-0.1-0.3-0.3-0.6-0.6-0.6c-0.7,0-0.8,0.7-0.8,1.2c0,0.5,0.1,1.2,0.8,1.2c0.4,0,0.6-0.3,0.7-0.6l0.3,0.2
			C63,32.6,62.6,33,62.1,33c-0.7,0-1.2-0.5-1.2-1.6c0-1.1,0.5-1.6,1.2-1.6c0.5,0,0.8,0.3,1,0.8L62.8,30.7z"/>
		<path d="M64.2,29.1h-0.4v-0.5h0.4V29.1z M64.2,32.9h-0.4v-3h0.4V32.9z"/>
		<path d="M66.7,28.6h0.4v4.3h-0.4v-0.3c-0.2,0.3-0.4,0.4-0.8,0.4c-0.4,0-1.1-0.4-1.1-1.5c0-1.2,0.6-1.7,1.1-1.7
			c0.3,0,0.6,0.2,0.8,0.4V28.6z M66.7,30.7c-0.1-0.3-0.4-0.5-0.7-0.5c-0.6,0-0.7,0.8-0.7,1.3c0,0.9,0.4,1.2,0.7,1.2
			c0.3,0,0.6-0.3,0.7-0.6V30.7z"/>
		<path d="M68.2,31.5c0,0.9,0.4,1.2,0.8,1.2c0.3,0,0.6-0.3,0.7-0.5l0.3,0.2c-0.2,0.4-0.6,0.7-1.1,0.7c-0.7,0-1.2-0.5-1.2-1.6
			c0-1.1,0.5-1.6,1.2-1.6c0.9,0,1.1,0.9,1.1,1.7H68.2z M69.5,31.1c0-0.4-0.2-0.9-0.6-0.9c-0.5,0-0.7,0.5-0.7,0.9H69.5z"/>
		<path d="M71,32.9h-0.4v-3H71v0.3c0.3-0.2,0.5-0.4,0.8-0.4c0.4,0,0.8,0.2,0.8,1v2.1h-0.4v-2c0-0.3,0.1-0.8-0.4-0.8
			c-0.3,0-0.6,0.3-0.8,0.5V32.9z"/>
		<path d="M73.9,29.9h0.7v0.4h-0.7v1.9c0,0.3,0,0.5,0.3,0.5c0.1,0,0.2,0,0.3,0v0.3c-0.1,0-0.3,0.1-0.4,0.1c-0.7,0-0.7-0.5-0.7-1
			v-1.7H73v-0.4h0.5v-1h0.4V29.9z"/>
		<path d="M76.6,32.9l0-0.4c-0.2,0.2-0.5,0.5-0.9,0.5c-0.5,0-0.8-0.4-0.8-0.9c0-0.9,0.9-1.1,1.6-1.2l0.1,0v-0.2
			c0-0.3-0.2-0.5-0.6-0.5c-0.3,0-0.6,0.2-0.7,0.5L75,30.4c0.3-0.4,0.6-0.6,1-0.6c0.4,0,1,0.3,1,0.9v1.5c0,0.2,0,0.5,0.1,0.7H76.6z
			 M76.4,31.3c-0.4,0.1-1.1,0.3-1.1,0.8c0,0.3,0.2,0.5,0.5,0.5c0.3,0,0.7-0.2,0.9-0.5v-0.9L76.4,31.3z"/>
		<path d="M78.1,32.9h-0.4v-4.3h0.4V32.9z"/>
		<path d="M79.1,31.5c0,0.9,0.4,1.2,0.8,1.2c0.3,0,0.6-0.3,0.7-0.5l0.3,0.2c-0.2,0.4-0.6,0.7-1.1,0.7c-0.7,0-1.2-0.5-1.2-1.6
			c0-1.1,0.5-1.6,1.2-1.6c0.9,0,1.1,0.9,1.1,1.7H79.1z M80.5,31.1c0-0.4-0.2-0.9-0.6-0.9c-0.5,0-0.7,0.5-0.7,0.9H80.5z"/>
	</g>
</g>
</svg>
