<?xml version="1.0" encoding="UTF-8"?>
<svg id="p2_d" xmlns="http://www.w3.org/2000/svg" viewBox="0 0 150 150">
  <defs>
    <style>
      .cls-1, .cls-2 {
        fill: #fff;
      }

      .cls-2 {
        stroke: #999;
        stroke-linecap: round;
        stroke-linejoin: round;
        stroke-width: 2px;
      }

      .cls-3 {
        fill: #999;
      }

      .cls-4 {
        fill: #ccc;
      }
    </style>
  </defs>
  <g>
    <circle class="cls-1" cx="75" cy="75" r="71.5"/>
    <path class="cls-3" d="m75,7c37.5,0,68,30.5,68,68s-30.5,68-68,68S7,112.5,7,75,37.5,7,75,7m0-7C33.58,0,0,33.58,0,75s33.58,75,75,75,75-33.58,75-75S116.42,0,75,0h0Z"/>
  </g>
  <path class="cls-4" d="m72.81,41.36c-15.51,14.14-38.59,1.46-38.59,1.46-2.17,31.5-3.08,62.63,38.95,83.32,0,0,20.7-7.31,33.15-32.25,8.24-16.5,5.42-42.15,5.41-51.99,0,0-25.93,12.09-38.92-.55Z"/>
  <path class="cls-1" d="m72.81,48.82c10.87,8.15,31.7,3.62,31.7,3.62,0,0,.91,12.68-.91,24.46-4.21,27.39-30.44,39.49-30.44,39.49,0,0-23.75-6.46-31.16-38.59-2.72-11.78-.91-25.36-.91-25.36,20.83,3.62,31.7-3.62,31.7-3.62Z"/>
  <polygon class="cls-4" points="86.42 72.43 86.42 62.01 78.96 62.01 78.96 65.52 72.08 59.15 52.86 77.22 58.02 77.22 58.02 96.15 86.42 96.15 86.42 77.22 91.58 77.22 86.42 72.43"/>
  <g>
    <path class="cls-2" d="m67.74,78.09v-2.15c0-2.46,1.99-4.45,4.45-4.45s4.45,1.99,4.45,4.45v2.15"/>
    <rect class="cls-2" x="64.83" y="78.99" width="14.7" height="12.13"/>
    <path class="cls-3" d="m73.98,83.92c0-.91-.81-1.64-1.8-1.64s-1.8.74-1.8,1.64c0,.63.39,1.18.97,1.46v2.71h1.66v-2.71c.58-.27.97-.82.97-1.46Z"/>
  </g>
</svg>