<svg id="Logotype" xmlns="http://www.w3.org/2000/svg" viewBox="0 0 839.85 327.12"><title>Virtualys_logo_horizontal_slogan_coul_rvb</title><path d="M335.89,280.29,318.23,244h1.7L336,276.88,352,244h1.52Z" style="fill:#0084f7"/><path d="M358.71,253q-1.37,0-1.37-1.28t1.37-1.28q1.37,0,1.37,1.28T358.71,253Zm.76,5.21v21.26H358V258.22Z" style="fill:#0084f7"/><path d="M373.63,259a6.12,6.12,0,0,0-4.43,1.89,6,6,0,0,0-1.92,4.4v14.2h-1.52V258.18h1.52v3.17a6.7,6.7,0,0,1,2.65-2.65,7.89,7.89,0,0,1,4-1,7,7,0,0,1,4.26,1.51v1.89A6.38,6.38,0,0,0,373.63,259Z" style="fill:#0084f7"/><path d="M389.87,278.44v1.33a8,8,0,0,1-5.73-2.25,7.58,7.58,0,0,1-2.37-5.75V249.61h1.52v8.62h6.53v1.33h-6.53v12.22a6.51,6.51,0,0,0,6.58,6.68Z" style="fill:#0084f7"/><path d="M410.79,258.18h1.52v21.31h-1.52v-4.31q-2.41,4.83-8.24,4.83a9,9,0,0,1-6.68-2.75,9.17,9.17,0,0,1-2.7-6.68V258.18h1.52v12.41a8,8,0,0,0,2.3,5.68,7.39,7.39,0,0,0,5.56,2.42,8,8,0,0,0,5.75-2.42,7.67,7.67,0,0,0,2.49-5.68Z" style="fill:#0084f7"/><path d="M438.78,258.18v21.31h-1.52v-5.3a10,10,0,0,1-4,4.26A11,11,0,0,1,427.6,280a10.88,10.88,0,0,1-8-3.29,11,11,0,0,1,0-15.77,10.89,10.89,0,0,1,8-3.29,11.39,11.39,0,0,1,5.8,1.61,8.74,8.74,0,0,1,3.86,4.26v-5.35Zm-20.93,10.7a9.95,9.95,0,0,0,9.82,9.8,9.21,9.21,0,0,0,6.84-2.91,9.83,9.83,0,0,0,0-13.85,9.23,9.23,0,0,0-6.84-2.94,9.35,9.35,0,0,0-6.89,3A9.58,9.58,0,0,0,417.85,268.88Z" style="fill:#0084f7"/><path d="M452.55,278.58v1.33a8,8,0,0,1-5.73-2.25,7.58,7.58,0,0,1-2.37-5.75V244H446v27.93a6.51,6.51,0,0,0,6.58,6.68Z" style="fill:#0084f7"/><path d="M488.68,280.29,471,244h1.7l16.1,32.91,16-32.91h1.51Z" style="fill:#0084f7"/><path d="M511.5,253q-1.37,0-1.37-1.28t1.37-1.28q1.37,0,1.37,1.28T511.5,253Zm.76,5.21v21.26h-1.52V258.22Z" style="fill:#0084f7"/><path d="M523.2,258.94a3.27,3.27,0,0,0-2.18.8,2.51,2.51,0,0,0-.95,2,3,3,0,0,0,1.06,2.18,12.93,12.93,0,0,0,2.56,1.82q1.49.83,3,1.78a9.19,9.19,0,0,1,2.58,2.42,5.58,5.58,0,0,1,1.07,3.36,6.27,6.27,0,0,1-2.11,4.76,7.19,7.19,0,0,1-5.09,2,7.69,7.69,0,0,1-3.53-.83,5.42,5.42,0,0,1-2.39-2.2V274.7q1.8,4,5.78,4a6,6,0,0,0,4.14-1.52,4.49,4.49,0,0,0,1.68-3.38,4.75,4.75,0,0,0-1.07-3.15,9.94,9.94,0,0,0-2.58-2.18l-3-1.78a9.88,9.88,0,0,1-2.56-2.13,4.39,4.39,0,0,1-1.07-2.94,3.61,3.61,0,0,1,1.35-2.84,5.15,5.15,0,0,1,3.48-1.16,4.77,4.77,0,0,1,3.65,1.66v1.94A4.49,4.49,0,0,0,523.2,258.94Z" style="fill:#0084f7"/><path d="M536.22,253q-1.37,0-1.37-1.28t1.37-1.28q1.37,0,1.37,1.28T536.22,253Zm.76,5.21v21.26h-1.52V258.22Z" style="fill:#0084f7"/><path d="M545.35,276.62a11,11,0,0,1-3.27-7.88,10.61,10.61,0,0,1,3.31-7.79,11.29,11.29,0,0,1,15.93,0,10.68,10.68,0,0,1,3.29,7.81,11,11,0,0,1-3.22,7.88,10.42,10.42,0,0,1-7.81,3.36h-.43A10.48,10.48,0,0,1,545.35,276.62Zm17.76-7.77a9.61,9.61,0,0,0-2.86-6.94A9.23,9.23,0,0,0,553.4,259a9.35,9.35,0,0,0-6.89,3,9.58,9.58,0,0,0-2.91,6.94,9.95,9.95,0,0,0,9.83,9.8,9.21,9.21,0,0,0,6.84-2.91A9.56,9.56,0,0,0,563.11,268.85Z" style="fill:#0084f7"/><path d="M570.64,279.48h-1.52V258.18h1.52v4.31q2.41-4.83,8.24-4.83a9,9,0,0,1,6.68,2.75,9.17,9.17,0,0,1,2.7,6.68v12.41h-1.52V267.08a8,8,0,0,0-2.3-5.68,7.39,7.39,0,0,0-5.56-2.42,8,8,0,0,0-5.75,2.42,7.67,7.67,0,0,0-2.49,5.68Z" style="fill:#0084f7"/><path d="M635.83,279.48h-2l-.95-1.18-1.07-1.3q-.59-.73-1.3-1.68a9.93,9.93,0,0,1-4,3.24,13.14,13.14,0,0,1-5.78,1.25,12.49,12.49,0,0,1-4.36-.73,10.69,10.69,0,0,1-3.43-2,9.19,9.19,0,0,1-2.25-3,8.53,8.53,0,0,1-.8-3.69,8.29,8.29,0,0,1,.76-3.53,10.09,10.09,0,0,1,2-2.91,10.66,10.66,0,0,1,3-2.08,12.55,12.55,0,0,1,3.58-1.09q-1.42-1.85-2.37-3.12a15.91,15.91,0,0,1-1.14-1.66,20.86,20.86,0,0,1-1.07-2.27,7.15,7.15,0,0,1-.45-2.65,6.91,6.91,0,0,1,2.25-5.18,7.48,7.48,0,0,1,2.39-1.44,8.22,8.22,0,0,1,2.94-.52,10.62,10.62,0,0,1,3.67.62,13.46,13.46,0,0,1,2.82,1.37c0,.06-.17.26-.4.59a7.08,7.08,0,0,1-.45.59A14,14,0,0,0,625,246a8.89,8.89,0,0,0-2.65-.5,7,7,0,0,0-2.44.33,6.06,6.06,0,0,0-2,1.11,5.47,5.47,0,0,0-1.4,1.78,5.22,5.22,0,0,0-.52,2.37,6.92,6.92,0,0,0,.19,1.63,9,9,0,0,0,.43,1.35,10,10,0,0,0,.66,1.28l13,17,4.36-11.6h1.8l-5,13.12Zm-15.39-17.14a9.59,9.59,0,0,0-3.12.64,9.84,9.84,0,0,0-2.82,1.63,8.29,8.29,0,0,0-2,2.51,7.27,7.27,0,0,0,0,6.51,7.77,7.77,0,0,0,2,2.46,9,9,0,0,0,2.91,1.56,11.15,11.15,0,0,0,3.5.54,10.83,10.83,0,0,0,2.68-.33A12.09,12.09,0,0,0,626,277a11,11,0,0,0,2.06-1.33,7.44,7.44,0,0,0,1.49-1.61L625,268.26Q622.57,265.14,620.45,262.34Z" style="fill:#0084f7"/><path d="M658.09,244h1.56a11.54,11.54,0,0,1,8.38,3.38,10.81,10.81,0,0,1,3.46,8,10.42,10.42,0,0,1-3.58,7.91,11.35,11.35,0,0,1-7.88,3.31h-.38v12.93h-1.56Zm1.56,21.26H660a9.95,9.95,0,0,0,0-19.89h-.38Z" style="fill:#0084f7"/><path d="M683.75,259a6.12,6.12,0,0,0-4.43,1.89,6,6,0,0,0-1.92,4.4v14.2h-1.52V258.18h1.52v3.17a6.69,6.69,0,0,1,2.65-2.65,7.89,7.89,0,0,1,4-1,7,7,0,0,1,4.26,1.51v1.89A6.38,6.38,0,0,0,683.75,259Z" style="fill:#0084f7"/><path d="M694.45,276.62a11,11,0,0,1-3.27-7.88,10.61,10.61,0,0,1,3.31-7.79,11.29,11.29,0,0,1,15.93,0,10.68,10.68,0,0,1,3.29,7.81,11,11,0,0,1-3.22,7.88,10.42,10.42,0,0,1-7.81,3.36h-.43A10.48,10.48,0,0,1,694.45,276.62Zm17.76-7.77a9.61,9.61,0,0,0-2.86-6.94A9.23,9.23,0,0,0,702.5,259a9.35,9.35,0,0,0-6.89,3,9.58,9.58,0,0,0-2.91,6.94,9.95,9.95,0,0,0,9.83,9.8,9.21,9.21,0,0,0,6.84-2.91A9.56,9.56,0,0,0,712.2,268.85Z" style="fill:#0084f7"/><path d="M728.54,280.1h-.43a10.51,10.51,0,0,1-7.81-3.36,11,11,0,0,1-3.27-7.88,10.64,10.64,0,0,1,3.31-7.81,11.11,11.11,0,0,1,8.14-3.29,10.87,10.87,0,0,1,8.24,3.65v2.42a11,11,0,0,0-3.72-3.46,9.85,9.85,0,1,0,0,17.14,10.81,10.81,0,0,0,3.72-3.5v2.46A10.63,10.63,0,0,1,728.54,280.1Z" style="fill:#0084f7"/><path d="M751.41,280.05H751a10.65,10.65,0,0,1-7.84-3.39,10.88,10.88,0,0,1-3.34-7.88,10.61,10.61,0,0,1,3.31-7.79,11.17,11.17,0,0,1,8.19-3.29,10.92,10.92,0,0,1,8.38,3.88l-14.87,14.68a9.61,9.61,0,0,0,5.92,2.46,10,10,0,0,0,5.09-1.3,11.2,11.2,0,0,0,3.72-3.48v2.42A10.61,10.61,0,0,1,751.41,280.05Zm-.5-21a10,10,0,0,0-9.59,9.61,9.7,9.7,0,0,0,2.51,6.63l13.78-13.68A9.91,9.91,0,0,0,750.91,259Z" style="fill:#0084f7"/><path d="M768.83,258.94a3.27,3.27,0,0,0-2.18.8,2.51,2.51,0,0,0-.95,2,3,3,0,0,0,1.06,2.18,12.93,12.93,0,0,0,2.56,1.82q1.49.83,3,1.78a9.19,9.19,0,0,1,2.58,2.42,5.58,5.58,0,0,1,1.07,3.36,6.27,6.27,0,0,1-2.11,4.76,7.19,7.19,0,0,1-5.09,2,7.69,7.69,0,0,1-3.53-.83,5.42,5.42,0,0,1-2.39-2.2V274.7q1.8,4,5.78,4a6,6,0,0,0,4.14-1.52,4.49,4.49,0,0,0,1.68-3.38,4.75,4.75,0,0,0-1.07-3.15,9.94,9.94,0,0,0-2.58-2.18l-3-1.78a9.88,9.88,0,0,1-2.56-2.13,4.39,4.39,0,0,1-1.07-2.94,3.61,3.61,0,0,1,1.35-2.84,5.15,5.15,0,0,1,3.48-1.16,4.77,4.77,0,0,1,3.65,1.66v1.94A4.49,4.49,0,0,0,768.83,258.94Z" style="fill:#0084f7"/><path d="M785.12,258.94a3.27,3.27,0,0,0-2.18.8,2.51,2.51,0,0,0-.95,2,3,3,0,0,0,1.06,2.18,12.93,12.93,0,0,0,2.56,1.82q1.49.83,3,1.78a9.19,9.19,0,0,1,2.58,2.42,5.58,5.58,0,0,1,1.07,3.36,6.27,6.27,0,0,1-2.11,4.76,7.19,7.19,0,0,1-5.09,2,7.69,7.69,0,0,1-3.53-.83,5.42,5.42,0,0,1-2.39-2.2V274.7q1.8,4,5.78,4a6,6,0,0,0,4.14-1.52,4.49,4.49,0,0,0,1.68-3.38,4.75,4.75,0,0,0-1.07-3.15,9.94,9.94,0,0,0-2.58-2.18l-3-1.78a9.88,9.88,0,0,1-2.56-2.13,4.39,4.39,0,0,1-1.07-2.94,3.61,3.61,0,0,1,1.35-2.84,5.15,5.15,0,0,1,3.48-1.16,4.77,4.77,0,0,1,3.65,1.66v1.94A4.49,4.49,0,0,0,785.12,258.94Z" style="fill:#0084f7"/><path d="M95.71,83a15.12,15.12,0,0,0-6.43-20.39l-.12-.05a2.77,2.77,0,0,0-3.72,1.18l-4.7,9h0L89.39,95.1Z" style="fill:#116ec1"/><path d="M236.24,117.39l-.2-.16a29.18,29.18,0,0,0-39.76,5l-.21.25-9.21,11.09A51.9,51.9,0,0,1,98.63,119L89.39,95.1,80.73,72.73l-4.63-12A21.12,21.12,0,0,0,49.91,48.33l-.49.16A2.81,2.81,0,0,0,47.69,52L60.33,89,97.92,198.92a35.13,35.13,0,0,0,59.58,11.88l42-47.63,36.95-41.86A2.77,2.77,0,0,0,236.24,117.39Z" style="fill:#0084f7"/><polygon points="154.24 125.76 117.48 115.29 147.12 88.91 184.73 103.06 154.24 125.76" style="fill:#ec6a10"/><polygon points="115.31 112.39 112.09 74.05 138.38 49.08 144.78 86.15 115.31 112.39" style="fill:#e78105"/><polygon points="185.8 99.6 148.34 85.51 141.95 48.53 176.17 63.88 185.8 99.6" style="fill:#f6aa0a"/><path d="M274.18,224.87l-39.4-81h3.8l35.92,73.42,35.7-73.42h3.38Z" style="fill:#0084f7"/><path d="M319.81,164q-3.07,0-3.06-2.85t3.06-2.85q3.06,0,3.06,2.85T319.81,164Zm1.69,11.62v47.43h-3.38V175.64Z" style="fill:#0084f7"/><path d="M353.09,177.33a13.65,13.65,0,0,0-9.88,4.23,13.4,13.4,0,0,0-4.28,9.82v31.69h-3.38V175.54h3.38v7.08a14.92,14.92,0,0,1,5.92-5.92,17.6,17.6,0,0,1,9-2.32,15.71,15.71,0,0,1,9.51,3.38V182Q358.69,177.33,353.09,177.33Z" style="fill:#0084f7"/><path d="M389.32,220.75v3a17.88,17.88,0,0,1-12.78-5,16.92,16.92,0,0,1-5.28-12.83V156.42h3.38v19.23h14.58v3H374.64v27.25a14.53,14.53,0,0,0,14.68,14.89Z" style="fill:#0084f7"/><path d="M436,175.54h3.38v47.54H436v-9.61q-5.39,10.77-18.38,10.77a20.05,20.05,0,0,1-14.89-6.13,20.45,20.45,0,0,1-6-14.89V175.54h3.38v27.68a17.79,17.79,0,0,0,5.12,12.68,16.5,16.5,0,0,0,12.41,5.39,17.87,17.87,0,0,0,12.83-5.39A17.11,17.11,0,0,0,436,203.21Z" style="fill:#0084f7"/><path d="M498.44,175.54v47.54h-3.38V211.24a22.22,22.22,0,0,1-8.87,9.51,24.56,24.56,0,0,1-12.68,3.49,24.28,24.28,0,0,1-17.75-7.34,24.61,24.61,0,0,1,0-35.18,24.29,24.29,0,0,1,17.75-7.34A25.4,25.4,0,0,1,486.45,178a19.49,19.49,0,0,1,8.61,9.51V175.54Zm-46.69,23.87a22.19,22.19,0,0,0,21.92,21.87,20.55,20.55,0,0,0,15.26-6.5,21.93,21.93,0,0,0-.05-30.9,20.59,20.59,0,0,0-15.26-6.55,20.85,20.85,0,0,0-15.37,6.6A21.36,21.36,0,0,0,451.75,199.41Z" style="fill:#0084f7"/><path d="M529.18,221.07v3a17.88,17.88,0,0,1-12.78-5,16.92,16.92,0,0,1-5.28-12.83V143.85h3.38v62.32a14.53,14.53,0,0,0,14.68,14.89Z" style="fill:#0084f7"/><path d="M575.87,175.54h3.38v46.06a22.36,22.36,0,0,1-22.61,22.5q-11.41,0-18.06-8.77l.21-5.28a23.06,23.06,0,0,0,7.76,8.08,18.75,18.75,0,0,0,23.61-2.64,18.43,18.43,0,0,0,5.7-13.57v-8q-5.18,10.35-18.06,10.35a20.53,20.53,0,0,1-15-6.18,20.15,20.15,0,0,1-6.23-14.84V175.54H540v27.68a17.42,17.42,0,0,0,5.33,12.68,17.48,17.48,0,0,0,25.25,0,17.43,17.43,0,0,0,5.33-12.68Z" style="fill:#0084f7"/><path d="M601.22,177.23a7.29,7.29,0,0,0-4.86,1.8,5.6,5.6,0,0,0-2.11,4.44,6.57,6.57,0,0,0,2.38,4.86,28.82,28.82,0,0,0,5.71,4.07q3.33,1.85,6.71,4a20.48,20.48,0,0,1,5.76,5.39,12.45,12.45,0,0,1,2.38,7.5,14,14,0,0,1-4.7,10.62,16.05,16.05,0,0,1-11.36,4.38,17.16,17.16,0,0,1-7.87-1.85,12.1,12.1,0,0,1-5.33-4.91V212.4q4,8.87,12.89,8.87A13.3,13.3,0,0,0,610,217.9a10,10,0,0,0,3.75-7.55,10.61,10.61,0,0,0-2.38-7,22.12,22.12,0,0,0-5.76-4.86l-6.71-4a22.07,22.07,0,0,1-5.7-4.75,9.8,9.8,0,0,1-2.38-6.55,8.05,8.05,0,0,1,3-6.34,11.49,11.49,0,0,1,7.76-2.59,10.64,10.64,0,0,1,8.13,3.7v4.33Q606.39,177.23,601.22,177.23Z" style="fill:#0084f7"/></svg>