<?xml version="1.0" encoding="UTF-8"?>
<svg id="p1" xmlns="http://www.w3.org/2000/svg" viewBox="0 0 150 150">
  <defs>
    <style>
      .cls-1 {
        fill: #fff;
      }

      .cls-2 {
        stroke: #7a9bf8;
        stroke-width: 2px;
      }

      .cls-2, .cls-3 {
        fill: none;
        stroke-miterlimit: 10;
      }

      .cls-3 {
        stroke: #fbce48;
        stroke-width: 4px;
      }

      .cls-4 {
        fill: #8ec788;
      }

      .cls-5 {
        fill: #f1ce56;
      }

      .cls-6 {
        fill: #7a9bf8;
      }
    </style>
  </defs>
  <g>
    <circle class="cls-1" cx="75" cy="75" r="71.5"/>
    <path class="cls-5" d="m75,7c37.5,0,68,30.5,68,68s-30.5,68-68,68S7,112.5,7,75,37.5,7,75,7m0-7C33.58,0,0,33.58,0,75s33.58,75,75,75,75-33.58,75-75S116.42,0,75,0h0Z"/>
  </g>
  <g>
    <circle class="cls-1" cx="75" cy="75" r="60.5"/>
    <path class="cls-4" d="m75,16.5c32.26,0,58.5,26.24,58.5,58.5s-26.24,58.5-58.5,58.5-58.5-26.24-58.5-58.5,26.24-58.5,58.5-58.5m0-4c-34.52,0-62.5,27.98-62.5,62.5s27.98,62.5,62.5,62.5,62.5-27.98,62.5-62.5S109.52,12.5,75,12.5h0Z"/>
  </g>
  <g>
    <polygon class="cls-6" points="37.82 101.83 59.28 80.37 61.58 82.67 68.1 76.15 73.85 81.9 67.33 88.42 69.25 90.33 47.78 111.8 37.82 101.83"/>
    <circle class="cls-3" cx="88.8" cy="61.58" r="23.38"/>
    <path class="cls-2" d="m78.45,53.53c3.83-8.43,17.63-7.67,20.7-1.53"/>
  </g>
</svg>