<?xml version="1.0" encoding="UTF-8" standalone="no"?>
<svg
   id="p2_res_d"
   viewBox="0 0 150 150"
   version="1.1"
   sodipodi:docname="p2_res_d.svg"
   inkscape:version="1.2.2 (732a01da63, 2022-12-09)"
   xmlns:inkscape="http://www.inkscape.org/namespaces/inkscape"
   xmlns:sodipodi="http://sodipodi.sourceforge.net/DTD/sodipodi-0.dtd"
   xmlns="http://www.w3.org/2000/svg"
   xmlns:svg="http://www.w3.org/2000/svg">
  <sodipodi:namedview
     id="namedview816"
     pagecolor="#ffffff"
     bordercolor="#666666"
     borderopacity="1.0"
     inkscape:showpageshadow="2"
     inkscape:pageopacity="0.0"
     inkscape:pagecheckerboard="0"
     inkscape:deskcolor="#d1d1d1"
     showgrid="false"
     inkscape:zoom="5.4266667"
     inkscape:cx="72.420147"
     inkscape:cy="75.092138"
     inkscape:window-width="1920"
     inkscape:window-height="1001"
     inkscape:window-x="-9"
     inkscape:window-y="-9"
     inkscape:window-maximized="1"
     inkscape:current-layer="p2_res_d" />
  <defs
     id="defs785">
    <style
       id="style783">
      .cls-1 {
        fill: #fff;
      }

      .cls-2 {
        font-family: Bahnschrift-BoldSemiCondensed, Bahnschrift;
        font-size: 20px;
        font-variation-settings: 'wght' 700, 'wdth' 87;
        font-weight: 700;
      }

      .cls-2, .cls-3 {
        fill: #ccc;
      }

      .cls-4 {
        fill: #999;
      }

      .cls-5 {
        letter-spacing: 0em;
      }
    </style>
  </defs>
  <g
     id="g805">
    <path
       class="cls-3"
       d="m76.01,13.07c2.44.74,4.23,2.44,5.98,4.15,1.26,1.24,2.61,1.62,4.31,1.17,1.33-.35,2.7-.55,4.06-.77,2.96-.47,5.34.81,6.52,3.58.62,1.45,1.12,2.96,1.58,4.46.44,1.46,1.34,2.33,2.79,2.77,1.48.45,2.95.94,4.37,1.54,2.82,1.19,4.12,3.57,3.63,6.58-.24,1.46-.52,2.91-.83,4.36-.31,1.42-.05,2.62.99,3.71,1.07,1.11,2.09,2.29,3.02,3.52,1.84,2.42,1.85,5.04.02,7.45-.95,1.26-2,2.46-3.09,3.6-1.01,1.06-1.26,2.24-.97,3.62.31,1.48.61,2.96.85,4.46.47,2.9-.81,5.3-3.52,6.46-1.45.62-2.97,1.07-4.45,1.61-.5.18-1.02.37-1.47.65-.95.58-1.14,1.26-.72,2.29,4.74,11.51,9.48,23.01,14.21,34.52.19.46.4.94.47,1.43.19,1.45-1.3,2.65-2.72,2.23-.35-.11-.68-.29-1.01-.45-4.85-2.42-9.7-4.83-14.52-7.28-.73-.37-1.23-.31-1.89.14-3.42,2.33-6.88,4.61-10.33,6.91-2.08,1.38-3.33.96-4.11-1.38-1.28-3.82-2.56-7.65-3.91-11.7-.21.5-.36.81-.48,1.13-1.35,3.59-2.69,7.18-4.04,10.77-.79,2.09-2.06,2.52-3.91,1.29-3.51-2.33-7.02-4.65-10.5-7.01-.66-.45-1.16-.51-1.89-.14-4.86,2.47-9.73,4.9-14.62,7.32-.52.26-1.15.5-1.71.46-1.59-.1-2.33-1.59-1.66-3.24,1.39-3.43,2.81-6.85,4.21-10.27,3.38-8.21,6.77-16.42,10.15-24.62.48-1.17.23-1.99-.94-2.53-.97-.45-2.02-.74-3.03-1.11-.88-.32-1.78-.61-2.64-.99-2.69-1.2-3.98-3.56-3.51-6.47.24-1.49.54-2.98.85-4.46.29-1.38.05-2.56-.96-3.62-1.07-1.12-2.09-2.29-3.03-3.52-1.9-2.49-1.89-5.11.02-7.62.9-1.18,1.86-2.31,2.9-3.37,1.1-1.13,1.39-2.38,1.04-3.88-.33-1.44-.6-2.9-.83-4.36-.45-2.85.82-5.24,3.47-6.39,1.45-.63,2.95-1.15,4.46-1.59,1.54-.45,2.47-1.35,2.91-2.89.43-1.48.94-2.95,1.55-4.37,1.18-2.76,3.56-4.05,6.52-3.57,1.46.23,2.91.52,4.36.83,1.42.31,2.67.12,3.71-.98.35-.37.76-.66,1.13-1.01,1.51-1.46,3.13-2.74,5.16-3.39h2.02Zm-29.98,49.18c-.21,1.1-.53,2.82-.87,4.53-.46,2.27-.18,2.79,1.99,3.51,1.18.39,2.36.79,3.54,1.19,2.35.81,3.94,2.39,4.74,4.75.45,1.34.88,2.68,1.37,4.01.57,1.55,1.04,1.85,2.65,1.6,1.23-.19,2.45-.45,3.66-.73,2.75-.63,5.2-.11,7.31,1.83.97.89,1.95,1.77,2.95,2.61,1.27,1.06,2.02,1.06,3.29-.01,1.11-.93,2.16-1.93,3.27-2.86,1.74-1.47,3.73-2.11,6-1.71,1.62.29,3.23.64,4.86.89,1.36.21,1.82-.07,2.32-1.36.42-1.06.78-2.15,1.09-3.25.89-3.24,2.94-5.27,6.18-6.16,1.2-.33,2.36-.78,3.52-1.21.88-.32,1.25-.99,1.09-1.91-.24-1.36-.47-2.72-.77-4.06-.64-2.83-.1-5.33,1.89-7.49.85-.91,1.67-1.85,2.48-2.8,1.15-1.36,1.15-2.08-.02-3.44-.9-1.05-1.83-2.07-2.73-3.11-1.54-1.78-2.2-3.83-1.76-6.18.26-1.42.58-2.83.82-4.26.33-1.89.04-2.38-1.77-3.01-1.27-.45-2.55-.86-3.82-1.29-2.36-.8-3.93-2.39-4.74-4.74-.51-1.49-1.03-2.99-1.56-4.47-.35-.96-1.05-1.37-2.06-1.18-1.32.24-2.65.47-3.96.77-2.83.64-5.33.11-7.49-1.89-.89-.82-1.8-1.63-2.72-2.42-1.43-1.23-2.16-1.22-3.6.02-1.05.9-2.06,1.84-3.11,2.73-1.77,1.5-3.79,2.13-6.1,1.69-1.42-.27-2.83-.58-4.26-.83-1.89-.33-2.37-.03-3.01,1.78-.43,1.24-.84,2.48-1.26,3.73-.8,2.39-2.39,4.01-4.79,4.82-1.49.51-2.99,1.03-4.47,1.56-.97.35-1.36,1.05-1.17,2.06.26,1.39.51,2.78.8,4.16.58,2.72.04,5.14-1.87,7.21-.87.94-1.71,1.9-2.54,2.88-1.15,1.35-1.14,2.08.02,3.44.94,1.1,1.93,2.16,2.86,3.27,1.14,1.36,1.78,2.92,1.75,5.36Z"
       id="path793" />
    <path
       class="cls-1"
       d="m46.03,62.24c.03-2.44-.61-4-1.75-5.36-.93-1.11-1.92-2.17-2.86-3.27-1.16-1.36-1.17-2.09-.02-3.44.83-.98,1.68-1.93,2.54-2.88,1.91-2.08,2.45-4.49,1.87-7.21-.29-1.38-.54-2.77-.8-4.16-.19-1.01.21-1.71,1.17-2.06,1.49-.53,2.98-1.05,4.47-1.56,2.39-.82,3.98-2.43,4.79-4.82.42-1.24.83-2.49,1.26-3.73.63-1.81,1.12-2.11,3.01-1.78,1.42.25,2.84.56,4.26.83,2.31.43,4.33-.2,6.1-1.69,1.05-.89,2.07-1.83,3.11-2.73,1.44-1.24,2.18-1.25,3.6-.02.92.79,1.83,1.59,2.72,2.42,2.16,2,4.66,2.53,7.49,1.89,1.31-.3,2.64-.52,3.96-.77,1.01-.19,1.71.22,2.06,1.18.53,1.49,1.05,2.98,1.56,4.47.81,2.35,2.38,3.94,4.74,4.74,1.27.43,2.55.85,3.82,1.29,1.81.64,2.1,1.12,1.77,3.01-.25,1.42-.56,2.84-.82,4.26-.44,2.35.22,4.39,1.76,6.18.9,1.05,1.84,2.06,2.73,3.11,1.16,1.37,1.17,2.09.02,3.44-.81.95-1.63,1.88-2.48,2.8-2,2.16-2.54,4.66-1.89,7.49.31,1.34.53,2.7.77,4.06.16.92-.21,1.59-1.09,1.91-1.17.43-2.33.89-3.52,1.21-3.24.89-5.29,2.92-6.18,6.16-.3,1.1-.67,2.19-1.09,3.25-.51,1.29-.96,1.56-2.32,1.36-1.63-.25-3.24-.6-4.86-.89-2.27-.4-4.26.24-6,1.71-1.1.94-2.16,1.93-3.27,2.86-1.27,1.07-2.02,1.08-3.29.01-1.01-.84-1.99-1.72-2.95-2.61-2.11-1.94-4.55-2.46-7.31-1.83-1.21.28-2.43.54-3.66.73-1.61.25-2.09-.04-2.65-1.6-.48-1.33-.91-2.67-1.37-4.01-.8-2.36-2.39-3.93-4.74-4.75-1.18-.41-2.36-.8-3.54-1.19-2.16-.72-2.45-1.24-1.99-3.51.35-1.71.66-3.43.87-4.53Zm28.97,15.51c14.22,0,25.85-11.62,25.87-25.85.02-14.21-11.58-25.84-25.83-25.89-14.23-.05-25.95,11.67-25.92,25.9.03,14.23,11.66,25.85,25.88,25.84Z"
       id="path795" />
    <path
       class="cls-1"
       d="m107.18,109.76c-2.76-1.38-5.53-2.76-8.29-4.14-.96-.48-1.95-.91-2.88-1.45-1.19-.7-2.23-.61-3.37.18-2.99,2.07-6.04,4.05-9.06,6.06-.27.18-.56.35-.97.61-2.28-6.85-4.54-13.62-6.81-20.43,2.24-.5,3.95-1.79,5.39-3.35,1.75-1.89,3.68-2.47,6.16-1.68,1.33.42,2.77.58,4.17.64,1.84.07,3.42-.64,4.5-2.23.09-.14.2-.27.31-.4.04-.04.12-.06.25-.12,3.59,8.72,7.18,17.43,10.77,26.14-.05.05-.11.11-.16.16Z"
       id="path797" />
    <path
       class="cls-1"
       d="m42.55,109.84c3.68-8.94,7.27-17.66,10.96-26.62.2.31.31.51.44.7,1.36,1.98,3.32,2.54,5.57,2.24,1.46-.19,2.92-.49,4.36-.82,1.49-.35,2.66.04,3.91.97,2.23,1.68,3.39,3.84,4.27,6.45.81,2.38.82,4.41-.17,6.72-1.62,3.76-2.93,7.65-4.41,11.6-.35-.21-.65-.38-.94-.57-2.97-1.97-5.97-3.9-8.89-5.96-1.36-.96-2.53-1-3.99-.22-3.29,1.75-6.66,3.36-10,5.03-.29.14-.58.27-1.1.51Z"
       id="path799" />
    <path
       class="cls-3"
       d="m75,77.75c-14.21,0-25.85-11.61-25.88-25.84-.03-14.24,11.69-25.95,25.92-25.9,14.24.05,25.85,11.69,25.83,25.89-.02,14.23-11.65,25.85-25.87,25.85Z"
       id="path801" />
    <path
       class="cls-3"
       d="m74.99,73.45c-11.84-.01-21.52-9.69-21.56-21.55-.04-11.83,9.85-21.7,21.63-21.59,11.92.12,21.58,9.81,21.51,21.6-.07,11.88-9.75,21.55-21.58,21.54Z"
       id="path803" />
  </g>
  <text
     class="cls-2"
     transform="translate(52.8 135.32)"
     id="text813"><tspan
       x="0"
       y="0"
       id="tspan807">Q</tspan><tspan
       class="cls-5"
       x="11.14"
       y="0"
       id="tspan809">U</tspan><tspan
       x="21.61"
       y="0"
       id="tspan811">IZZ</tspan></text>
</svg>
