<?xml version="1.0" encoding="UTF-8"?>
<svg id="p3" xmlns="http://www.w3.org/2000/svg" viewBox="0 0 150 150">
  <defs>
    <style>
      .cls-1 {
        fill: #fff;
      }

      .cls-2 {
        fill: none;
        stroke: #7a9bf8;
        stroke-linecap: round;
        stroke-linejoin: round;
        stroke-width: 2px;
      }

      .cls-3 {
        fill: #8ec788;
      }

      .cls-4 {
        fill: #f1ce56;
      }
    </style>
  </defs>
  <g>
    <circle class="cls-1" cx="75" cy="75" r="71.5"/>
    <path class="cls-4" d="m75,7c37.5,0,68,30.5,68,68s-30.5,68-68,68S7,112.5,7,75,37.5,7,75,7m0-7C33.58,0,0,33.58,0,75s33.58,75,75,75,75-33.58,75-75S116.42,0,75,0h0Z"/>
  </g>
  <g>
    <circle class="cls-1" cx="75" cy="75" r="60.5"/>
    <path class="cls-3" d="m75,16.5c32.26,0,58.5,26.24,58.5,58.5s-26.24,58.5-58.5,58.5-58.5-26.24-58.5-58.5,26.24-58.5,58.5-58.5m0-4c-34.52,0-62.5,27.98-62.5,62.5s27.98,62.5,62.5,62.5,62.5-27.98,62.5-62.5S109.52,12.5,75,12.5h0Z"/>
  </g>
  <g>
    <path class="cls-2" d="m68.33,63.91c.03-.05.03-.11,0-.15-.9-1.2-12.91-17.48-7.05-25.3,6.09-8.12,19.28-15.22,25.37-3.04,6.09,12.18,10.15,26.38,2.03,28.41-7.04,1.76-9.5,3.52-10.03,3.96-.07.06-.08.14-.01.2.57.53,3.38,2.94,7,2.94l14.02,1.01h.02c1.78,0,4.23-.76,4.23,1.02v2.03c0,.46,2.49,2.03,2.03,2.03l-15.22-1.01h0s-9.63,0-9.63,0c-.19,0-.29.23-.15.36l3.01,3.01c.44.44.69,1.03,1.08,1.65l1.12,2.85c.22.55.24,1.14.26,1.73.02.73.61.95,1.62.75l4.5-1.5c1.9-.38,3.13,1.95,4.68,3.11l4.56,3.42c.93.7,1.78,1.51,2.48,2.44,1.18,1.55,2.7,4.04,2.7,6.53,0,3.81-5.36,5.83-6.02,6.07-.04.02-.09,0-.13-.02l-5.96-3.98s-.06-.07-.06-.12v-3.63c0-.13-.16-.2-.25-.1l-9.68,9.68c-.14.14-.32.25-.51.31l-10.65,3.55c-.71.24-1.48-.08-1.81-.75l-3.48-6.95h0s-1.44-3.36-1.44-3.36c-1.02-2.39-3.02-4.22-5.48-5.04l-.94-.31c-2.54-.85-5.34.11-6.83,2.33,0,.01-.01.02-.02.03l-.51,1.27.9-5.37c.74-4.42,2.84-8.51,6.02-11.68h0c.08-.08.04-.22-.07-.25l-5.82-1.16c-2.23-.45-5.37-2.13-6.98-3.74l-.18-.18c-.61-.61-1.44-.95-2.3-.95l-1.66-.99s-.05-.03-.08-.02c-.8.04-3.36,1.19-4.01,1.52l-1.49.75c-.91.46-1.8-1.45-2.53-2.22-.03-.03-.07-.05-.12-.04l-1.79.09s-.09-.02-.12-.05c-.64-.68-.86-1.65-.56-2.54l1.17-3.52c.22-.67.78-1.19,1.47-1.36l4.4-1.1c1.66-.42,3.43-.11,4.85.84l3.12,2.08c.48.32.93.69,1.34,1.1l2.63,2.63c.52.52,1.23.82,1.98.82h7.34c1.02,0,1.97-.54,2.49-1.41l5.19-8.65Z"/>
    <path class="cls-2" d="m109.98,72.96c.93,3.85-.59,4.86-4.54,3.85-.67-.17-1.21-.67-1.41-1.32-1.17-3.81.23-9.41,4.17-8.46,1.78.43,1.35,4.16,1.78,5.94Z"/>
    <path class="cls-2" d="m105.93,95.28l2.86-1.43c.77-.39,1.66-.45,2.48-.18l2.73.91c1.33.44,2.43,1.4,3.06,2.65l.54,1.08c.31.63.25,1.37-.17,1.93l-5.4,7.2s0,.01-.01.02l-4.05,4.05c-.63.63-1.26,1.06-1.82,1.36-1.13.6-2.53.08-3.1-1.06l-3.02-5.99"/>
    <path class="cls-4" d="m85.44,109.01l-2.84-4.9s-.01-.03-.02-.05c-.58-2.71-.51-5.5.18-8.17.2-.77.53-1.5.9-2.21l3.61-6.79c.43-.82-.46-1.7-1.27-1.24,0,0-3.24,1.45-7.65,3.73-.01,0-.03.01-.04.01l-6.07,1.01c-3.22.54-6.51.48-9.72-.15l-7.91-1.58c-.2-.04-.41.07-.49.26l-2.25,5.61c-.31.79.19,1.66,1.03,1.78l4.82-.13c2.56-.07,5.02.98,6.73,2.88l3.25,3.59c.7.78,1.29,1.65,1.75,2.58l3.67,7.52c.36.74,1.21,1.09,1.99.83l3.14-1.04s0,0,0,0l6.89-2.75c.32-.13.45-.51.28-.8Z"/>
    <path class="cls-2" d="m63.51,104.31l.83-.42c.62-.31,1.36-.29,1.96.05l.94.54c1.07.61,1.91,1.56,2.38,2.7l.48,1.16c.86,2.06,1.03,4.35.49,6.52l-.91,3.63c-.19.75-.57,1.43-1.12,1.98l-2.15,2.15c-.64.64-1.62.8-2.43.39l-1.62-.81c-.7-.35-1.27-.92-1.62-1.62l-.89-1.79c-1.65-3.31-1.65-7.2,0-10.5l.32-.63c.72-1.45,1.9-2.62,3.35-3.35Z"/>
    <path class="cls-2" d="m53.16,99.34l2.02,12.12s.03.07.06.09l3.53,2.51"/>
  </g>
</svg>